<svg xmlns="http://www.w3.org/2000/svg" width="200" height="200" class="icon"
    viewBox="0 0 1024 1024">
    <path fill="#D94437"
        d="m-157.58 530.182-32.826 21.722-68.703 64.188m88.472-89.326-49.178 41.49c-20.745 17.816-52.35 44.419-52.35 44.419" />
    <path fill="#D94437"
        d="M430.362 1088.715c1.22-50.399-20.501-169.378 62.845-253.457 85.788-86.764 261.267-111.78 272.738-121.42 30.995-28.19 43.565-64.31 52.595-101.285-86.764 28.677-210.746-65.164-283.11-217.824-45.64-96.404-19.647-235.03-4.881-306.174-51.253-13.057-101.53-8.786-152.66 34.29-41.368 35.023-77.49 149.244-164.375 236.861C91.484 482.956-79.968 484.91-149.404 524.57c-26.114 11.96-59.184 35.999-91.156 68.215a438 438 0 0 0-45.761 54.67 326.43 326.43 0 0 0 29.53 430.644l132.16 130.816a327.04 327.04 0 0 0 419.661 33.803c19.037-11.471 41.735-28.555 64.554-49.91 46.372-43.321 76.391-88.106 70.778-104.092" />
    <path fill="#FBE9EB"
        d="M402.295 859.664c6.956-13.18 26.48-44.419 72.486-90.79 40.148-40.88 150.951-69.314 156.32-73.829 14.766-13.301 10.74-33.802 14.888-51.374-41.002 13.545-144.24-82.493-178.408-154.49-21.477-45.396-31.85-72.365-24.772-105.923-24.04-6.101-23.674 1.953-47.714 22.332-19.525 16.474-36.487 70.29-77.49 111.657-59.184 59.795-151.805 71.998-169.987 83.835l-50.032 31.362c-61.992 61.625-61.992 163.642-1.587 223.315l62.236 61.747a154.124 154.124 0 0 0 217.701-1.22z" />
    <path fill="#5B4037" d="m404.491 746.908-92.254-91.156 824.435-812.477 71.754 71.021z" />
    <path fill="#5A4035" d="M1149.974 24.856 999.754-58.98l237.96-220.509 139.846 73.95z" />
    <path fill="#4B5359"
        d="M67.566 770.338 260.74 961.559l-54.182 54.914L13.385 825.129zm103.116-104.214 193.173 191.1-58.818 59.428-193.296-191.1z" />
</svg>
